#!OML:ASF X:\für Bonn\!DataBase\2005_08_10_Bjorn_Final\c3d\bjorn.ASF
:FULLY-SPECIFIED
:DEGREES
145
root 0.896305 18.6894 1.9709 -178.271 0.145286 -181.176
lowerback -5.72909 1.79005 2.82791
upperback 5.32201 2.35008 -0.538255
thorax 8.98286 1.4201 -1.82729
lowerneck -9.94518 -0.676552 0.596177
upperneck 21.4055 -1.60754 -1.82851
head 8.25057 -1.25623 -0.92241
rclavicle -8.00108e-015 -2.18663e-015
rhumerus 65.64 6.8704 -62.1003
rradius 16.4308
rwrist 35.1975
rhand -13.0393 9.8123
rfingers 7.12502
rthumb 13.0553 -19.7591
lclavicle -8.00108e-015 -2.18663e-015
lhumerus 72.2716 -15.8041 54.4797
lradius 11.3881
lwrist -44.3129
lhand -22.5364 -11.0487
lfingers 7.12502
lthumb 3.89079 18.8955
rfemur 157.678 -170.086 -165.683
rtibia 44.8832
rfoot -29.3854 13.1488
rtoes -20.5938
lfemur -20.5066 4.68776 -17.9042
ltibia 42.9427
lfoot -26.4575 -2.38341
ltoes -19.0728
146
root 0.904033 18.7926 1.96042 -178.152 0.188327 -181.216
lowerback -6.52646 1.82726 2.70981
upperback 5.31213 2.3786 -0.569856
thorax 9.44222 1.42488 -1.76621
lowerneck -9.10181 -0.574506 0.640038
upperneck 21.8306 -1.60817 -1.74847
head 8.23949 -1.28874 -0.905624
rclavicle 2.63887e-014 -5.56597e-015
rhumerus 65.4637 7.36034 -60.9104
rradius 16.492
rwrist 34.5602
rhand -12.8789 9.59341
rfingers 7.12502
rthumb 13.2099 -19.9681
lclavicle 2.63887e-014 -5.56597e-015
lhumerus 71.6523 -16.0279 55.1503
lradius 11.5396
lwrist -45.6649
lhand -22.2406 -11.1945
lfingers 7.12502
lthumb 4.17645 18.7443
rfemur 158.552 -170.089 -165.71
rtibia 43.2794
rfoot -28.6731 13.7246
rtoes -18.1537
lfemur -19.6268 4.78425 -17.8768
ltibia 41.2229
lfoot -26.3003 -3.05071
ltoes -18.3891
147
root 0.910633 18.8822 1.95249 -178.024 0.240199 -181.218
lowerback -7.29368 1.87814 2.63524
upperback 5.28544 2.42314 -0.596264
thorax 9.86968 1.43898 -1.72249
lowerneck -8.21552 -0.479468 0.676195
upperneck 22.2445 -1.63389 -1.63205
head 8.21695 -1.33342 -0.877667
rclavicle -2.23633e-015 -1.19271e-015
rhumerus 65.2895 7.85616 -59.6297
rradius 16.6062
rwrist 33.7587
rhand -12.5864 9.34242
rfingers 7.12502
rthumb 13.4919 -20.2006
lclavicle -2.23633e-015 -1.19271e-015
lhumerus 71.0129 -16.2402 55.8452
lradius 11.7463
lwrist -47.1174
lhand -21.9452 -11.33
lfingers 7.12502
lthumb 4.46169 18.603
rfemur 159.363 -170.059 -165.707
rtibia 41.8049
rfoot -27.8077 14.0534
rtoes -16.401
lfemur -18.8447 4.91576 -17.8099
ltibia 39.6873
lfoot -26.1016 -3.75438
ltoes -18.1312
148
root 0.917999 18.9604 1.94497 -177.915 0.283219 -181.238
lowerback -8.02704 1.91459 2.51925
upperback 5.26557 2.4557 -0.604386
thorax 10.2822 1.44378 -1.63829
lowerneck -7.55728 -0.35144 0.630667
upperneck 22.9575 -1.64305 -1.47034
head 8.33898 -1.3843 -0.827308
rclavicle -1.80397e-014 8.94531e-015
rhumerus 65.1116 8.26329 -58.7266
rradius 16.6949
rwrist 33.2729
rhand -12.365 9.16622
rfingers 7.12502
rthumb 13.7052 -20.3625
lclavicle -1.80397e-014 8.94531e-015
lhumerus 70.3568 -16.3778 56.6969
lradius 11.9374
lwrist -48.7234
lhand -21.6933 -11.4451
lfingers 7.12502
lthumb 4.70495 18.4827
rfemur 160.153 -170.048 -165.727
rtibia 40.4712
rfoot -26.8572 14.1275
rtoes -15.2887
lfemur -18.1034 5.06488 -17.7652
ltibia 38.3037
lfoot -25.8692 -4.37678
ltoes -18.23
